<svg viewBox="0 0 32 28" fill="none" xmlns="http://www.w3.org/2000/svg" width="32" height="28" >
<path fill="none" d="M8 3.5C8 1.56953 9.435 0 11.2 0H28.8C30.565 0 32 1.56953 32 3.5V19.25C32 21.1805 30.565 22.75 28.8 22.75H16.84C16.25 21.3555 15.345 20.1523 14.22 19.25H19.2V17.5C19.2 16.532 19.915 15.75 20.8 15.75H24C24.885 15.75 25.6 16.532 25.6 17.5V19.25H28.8V3.5H11.2V6.18516C10.26 5.58906 9.165 5.25 8 5.25V3.5ZM8 17.5C5.35 17.5 3.2 15.1484 3.2 12.25C3.2 9.35156 5.35 7 8 7C10.65 7 12.8 9.35156 12.8 12.25C12.8 15.1484 10.65 17.5 8 17.5ZM6.665 19.25H9.33C13.015 19.25 16 22.5148 16 26.5398C16 27.3437 15.405 28 14.665 28H1.335C0.595 28 0 27.3492 0 26.5398C0 22.5148 2.985 19.25 6.665 19.25Z" fill="black"/>
</svg>
